HIERARCHY
ROOT joint_0
{
	OFFSET 0.000000 0.000000 0.000000
	CHANNELS 6 Xposition Yposition Zposition Zrotation Yrotation Xrotation 
	JOINT joint_1
	{
		OFFSET 0.000000 0.000000 0.000000
		CHANNELS 3 Zrotation Yrotation Xrotation
		JOINT joint_2
		{
			OFFSET 3.811170 -8.520760 0.839290
			CHANNELS 3 Zrotation Yrotation Xrotation
			JOINT joint_3
			{
				OFFSET 2.562200 -7.039590 0.000000
				CHANNELS 3 Zrotation Yrotation Xrotation
				JOINT joint_4
				{
					OFFSET 0.157640 -0.433110 2.322550
					CHANNELS 3 Zrotation Yrotation Xrotation
					End Site
					{
						OFFSET 0.000000 0.000000 0.000000
					}
				}
			}
		}
	}
	JOINT joint_5
	{
		OFFSET 0.000000 0.000000 0.000000
		CHANNELS 3 Zrotation Yrotation Xrotation
		JOINT joint_6
		{
			OFFSET -3.848050 -8.780180 0.839290
			CHANNELS 3 Zrotation Yrotation Xrotation
			JOINT joint_7
			{
				OFFSET -2.568260 -7.056230 0.000000
				CHANNELS 3 Zrotation Yrotation Xrotation
				JOINT joint_8
				{
					OFFSET -0.164730 -0.452590 2.363150
					CHANNELS 3 Zrotation Yrotation Xrotation
					End Site
					{
						OFFSET 0.000000 0.000000 0.000000
					}
				}
			}
		}
	}
	JOINT joint_9
	{
		OFFSET 0.028270 2.035590 -0.193380
		CHANNELS 3 Zrotation Yrotation Xrotation
		JOINT joint_10
		{
			OFFSET 0.056720 2.048850 -0.042750
			CHANNELS 3 Zrotation Yrotation Xrotation
			JOINT joint_11
			{
				OFFSET -0.054170 1.746240 0.172020
				CHANNELS 3 Zrotation Yrotation Xrotation
				JOINT joint_12
				{
					OFFSET 0.104070 1.761360 -0.123970
					CHANNELS 3 Zrotation Yrotation Xrotation
					End Site
					{
						OFFSET 0.000000 0.000000 0.000000
					}
				}
			}
			JOINT joint_13
			{
				OFFSET 3.362410 1.200890 -0.311210
				CHANNELS 3 Zrotation Yrotation Xrotation
				JOINT joint_14
				{
					OFFSET 4.983000 -0.000000 -0.000000
					CHANNELS 3 Zrotation Yrotation Xrotation
					JOINT joint_15
					{
						OFFSET 3.483560 -0.000000 -0.000000
						CHANNELS 3 Zrotation Yrotation Xrotation
						JOINT joint_16
						{
							OFFSET 0.715260 -0.000000 -0.000000
							CHANNELS 3 Zrotation Yrotation Xrotation
							End Site
							{
								OFFSET 0.000000 0.000000 0.000000
							}
						}
					}
				}
			}
			JOINT joint_17
			{
				OFFSET -3.136600 1.374050 -0.404650
				CHANNELS 3 Zrotation Yrotation Xrotation
				JOINT joint_18
				{
					OFFSET -5.241900 -0.000000 -0.000000
					CHANNELS 3 Zrotation Yrotation Xrotation
					JOINT joint_19
					{
						OFFSET -3.444170 -0.000000 -0.000000
						CHANNELS 3 Zrotation Yrotation Xrotation
						JOINT joint_20
						{
							OFFSET -0.622530 -0.000000 -0.000000
							CHANNELS 3 Zrotation Yrotation Xrotation
							End Site
							{
								OFFSET 0.000000 0.000000 0.000000
							}
						}
					}
				}
			}
		}
	}
}
MOTION
Frames: 15
Frame Time: 0.031667
4.847296 15.567984 -2.364512 -5.013435 -25.555210 3.808602 -9.087133 13.944848 -30.154930 -5.121438 12.912492 26.024638 0.934838 5.732031 -10.098663 -0.071340 -0.764333 -1.997071 1.677205 -9.638748 0.046187 14.381658 -10.438163 23.027452 1.095617 -3.081948 -9.364784 0.270589 0.198127 -0.541465 -1.110623 1.825974 -1.107960 1.625338 -0.071508 -5.853421 -0.283079 -1.163437 1.600074 -0.897682 0.083855 3.209578 -39.487031 -29.319434 9.209853 52.243444 -54.065541 -19.454441 0.634468 -1.860035 2.851665 -6.975116 -0.003287 -0.039526 76.266821 25.740584 36.352210 -68.793597 59.990924 -27.790894 -0.419765 -1.285647 0.018984 6.939749 -0.023417 -0.002458 
4.817107 15.564921 -2.375835 -4.960369 -25.233309 3.832239 -8.527248 19.333117 -29.978055 -3.653571 13.280462 23.865897 0.575844 5.208904 -8.657274 -0.184461 -0.229882 -0.537239 -2.377552 -13.570842 0.706766 14.077564 -10.659921 25.176762 -0.458736 -1.229484 -11.531431 0.505718 0.204492 -0.548062 0.291391 2.015168 -1.729232 0.115854 0.044225 -8.105076 0.475805 0.421514 -0.725821 -1.056851 0.357972 2.810195 -39.659196 -30.553192 10.870241 52.981405 -57.268882 -19.946691 1.688906 -0.857908 2.706379 -6.958678 -0.002455 -0.041777 80.916828 26.773235 37.599136 -73.175061 63.990731 -29.281458 -0.270021 -1.301365 0.923145 6.909774 -0.014369 -0.003474 
4.786918 15.561857 -2.387158 -4.907456 -24.911741 3.856510 -8.916143 22.096523 -29.686581 -7.874260 14.376326 24.155118 0.480807 6.016202 -10.606816 -0.228545 0.237278 0.754063 -4.741147 -14.788316 -0.094975 17.004207 -11.687232 26.026449 0.559736 -1.505271 -13.390240 0.683842 0.026997 -0.082342 0.973457 1.782909 -1.197621 -0.143331 0.018116 -9.899925 1.027516 0.929696 -2.050635 -0.999503 0.556117 2.598741 -39.702623 -31.917607 8.852632 53.409197 -58.836814 -17.599637 1.822170 -1.448334 3.240145 -6.942940 -0.003165 -0.046436 83.789639 26.690755 38.014343 -75.905900 66.030642 -28.340666 -0.151483 -1.063459 0.610917 6.886607 -0.011696 -0.005180 
4.756367 15.558990 -2.397638 -4.866138 -24.549143 3.883723 -7.863603 22.933736 -30.763196 -8.017166 15.539068 25.610699 0.355830 5.673582 -11.243022 -0.273457 0.528887 1.517666 -4.725267 -15.100261 0.928203 19.673807 -12.441125 25.527103 0.529613 -2.591146 -12.075544 0.764058 -0.085341 0.181244 2.099180 1.658304 -2.325912 -1.354643 0.963477 -9.239172 0.157815 0.054550 -2.579254 -0.770260 0.716881 2.208573 -39.874194 -33.926427 7.578769 52.907458 -58.692929 -15.836663 1.421598 -0.747091 3.322166 -6.933244 -0.002347 -0.049388 85.447572 26.845809 40.238915 -77.674714 67.042576 -28.532863 -1.364516 -0.971732 1.797068 6.871036 -0.011348 -0.006530 
4.725811 15.556126 -2.408110 -4.825040 -24.186731 3.911492 -8.324623 23.888884 -31.562683 -7.923453 15.117557 26.609570 1.531734 5.936084 -12.780703 -0.318683 0.588992 1.604610 -4.091185 -14.943448 1.845425 22.203205 -12.284627 26.893861 0.553936 -2.594148 -11.095409 0.804963 -0.111236 0.168117 1.244623 1.643999 -3.511416 -2.251941 0.652668 -10.650608 0.946626 -0.217485 -1.468480 -0.340670 0.767331 1.702104 -40.564685 -34.716052 6.831446 52.850747 -59.495715 -14.129891 0.692716 -1.115159 4.151643 -6.927526 -0.002829 -0.052515 87.452383 27.160556 40.051563 -80.904458 68.724052 -28.979485 -0.643739 -0.991074 1.494361 6.864720 -0.007170 -0.005389 
4.695186 15.553324 -2.417671 -4.793570 -23.777342 3.938570 -8.445493 24.724424 -32.269857 -8.546819 15.985532 26.850937 0.604635 5.233408 -11.304207 -0.381201 0.619673 1.599424 -4.310441 -15.643401 2.402760 22.522450 -13.247213 27.552090 1.278451 -2.590624 -12.309217 0.865359 -0.058534 -0.053982 1.656574 1.593274 -2.735108 -1.057202 -0.014498 -11.241668 0.854841 -0.472013 -0.464432 -0.017056 0.748833 1.231819 -41.431398 -35.479121 6.228920 53.503635 -60.310939 -12.366680 1.070700 -1.290050 3.799264 -6.921246 -0.004696 -0.053852 88.499642 27.447156 40.751613 -83.641212 69.794623 -29.647775 -0.968965 -1.423544 1.344740 6.860200 -0.004311 -0.003774 
4.664560 15.550523 -2.427211 -4.762252 -23.367880 3.965985 -9.330123 24.731157 -32.143304 -8.823178 16.223356 26.694835 0.589594 5.785812 -12.447278 -0.446834 0.775203 1.948318 -4.876819 -15.834303 4.237431 24.707543 -12.972001 28.233944 0.795667 -3.081650 -11.587952 0.961234 -0.026902 -0.201215 0.704935 1.763985 -2.897351 -1.664250 0.473715 -11.041715 1.310690 -0.037245 -1.055627 0.057155 0.755623 0.876682 -42.322687 -36.076147 4.732208 55.005552 -62.400055 -12.014082 1.049217 -0.208184 3.869579 -6.915306 -0.005323 -0.051929 89.242739 28.011436 41.191536 -84.720430 71.837730 -29.419247 -0.055331 -1.519581 2.083775 6.855953 -0.004747 -0.002668 
4.634356 15.547652 -2.435450 -4.730384 -22.914324 3.990155 -8.466017 24.311802 -32.089130 -8.890532 15.838655 26.608776 0.182054 5.730450 -12.012675 -0.429788 0.722442 1.730235 -4.888569 -16.116936 4.065717 25.172469 -13.878410 28.591590 1.427328 -3.346822 -11.638803 0.994203 0.033517 -0.342091 0.777563 1.802060 -2.954181 -1.968427 0.848971 -11.780480 0.946800 -0.179983 -0.430711 0.098472 0.696052 1.204056 -43.646405 -35.925675 5.036925 55.012854 -62.850581 -12.008308 1.514405 -0.290208 3.442029 -6.920557 -0.005250 -0.051163 88.666196 27.765230 41.228333 -85.200825 71.620872 -29.324382 -0.918279 -1.441341 2.408591 6.850590 -0.000770 -0.004920 
4.604167 15.544780 -2.443646 -4.698308 -22.460527 4.014283 -9.312169 23.853145 -32.165260 -8.900937 16.292479 27.088600 0.249168 5.876029 -12.253615 -0.402228 0.683599 1.554906 -4.398127 -16.181094 4.288016 25.471198 -14.535039 29.970860 0.784491 -3.159674 -12.158101 1.010880 0.092907 -0.487101 0.024798 1.616899 -2.736524 -1.848246 1.095666 -12.318349 1.313871 0.347436 -1.053381 0.207358 0.639255 1.272045 -44.554649 -35.452814 5.683356 55.686327 -63.107533 -12.936290 1.134827 -0.403798 2.743133 -6.928160 -0.004472 -0.044414 87.610003 27.881155 41.352264 -85.597297 71.767113 -30.258722 -0.608534 -1.798776 2.082724 6.852100 0.005089 -0.006598 
4.574755 15.541664 -2.450464 -4.659977 -21.971764 4.033286 -8.883722 23.380590 -31.968636 -9.189712 16.397334 27.380302 0.019676 5.624388 -11.725878 -0.372417 0.653376 1.434412 -4.055544 -15.918236 3.677744 25.356669 -15.110470 30.755816 1.374026 -2.988149 -12.895056 1.027324 0.127361 -0.595872 0.177991 1.781075 -2.849376 -1.822066 0.776211 -11.862176 0.908031 -0.083066 -0.835347 0.349440 0.582500 1.342021 -45.473842 -35.052507 5.948555 56.599568 -63.211891 -13.047687 1.314358 -0.513740 2.579991 -6.933697 -0.002801 -0.041044 87.354028 28.172155 41.730554 -85.865880 72.061576 -30.900995 -0.832638 -1.699551 1.846642 6.852556 0.008461 -0.009123 
4.545377 15.538537 -2.457219 -4.621037 -21.482920 4.051727 -8.912919 23.000534 -32.214884 -9.015289 16.343562 27.565607 -0.094817 5.556250 -11.632108 -0.367204 0.651727 1.400107 -4.178166 -15.748475 3.464457 25.483306 -15.171997 31.077238 1.499321 -3.036201 -13.173060 1.049488 0.094570 -0.550173 0.135598 1.806967 -2.953620 -1.953877 0.949908 -11.622517 1.131874 -0.159374 -0.687246 0.398057 0.560155 1.414170 -46.406597 -34.719627 5.920162 56.824319 -64.136713 -13.088592 1.456469 -0.358496 2.502976 -6.934261 -0.002844 -0.041351 87.069141 28.237599 41.568723 -85.735403 72.764334 -30.848894 -0.686530 -1.752908 1.986532 6.852625 0.008523 -0.009019 
4.516542 15.534935 -2.463170 -4.581652 -20.968489 4.067556 -8.966379 22.830081 -32.317621 -9.068085 16.400319 27.710161 0.042923 5.237253 -11.506458 -0.371865 0.664011 1.430119 -4.133516 -15.997884 3.382955 25.524863 -15.244711 31.222226 1.603945 -2.971996 -13.584840 1.053036 0.081211 -0.515454 0.265160 1.818070 -3.054930 -1.983423 0.875899 -11.850885 0.904976 -0.179521 -0.686233 0.445298 0.589064 1.446371 -46.799732 -34.497233 5.582828 57.037523 -64.924418 -13.020114 1.362278 -0.263381 2.665962 -6.931992 -0.003050 -0.041904 86.760724 28.449471 41.367334 -85.788884 73.370404 -30.750813 -0.763210 -1.768086 2.163522 6.849936 0.008137 -0.008761 
4.487737 15.531307 -2.469074 -4.541675 -20.454391 4.082503 -9.004588 22.734795 -32.573760 -9.041800 16.344793 27.929523 -0.063145 5.134532 -11.305549 -0.371829 0.696679 1.516042 -4.150855 -16.309112 3.576955 25.619298 -15.247414 31.310687 1.612830 -2.947794 -14.072320 1.058678 0.075827 -0.504783 0.323816 1.822399 -3.057935 -2.009714 0.899876 -11.856487 0.943393 -0.091134 -0.878610 0.464076 0.653075 1.425912 -47.057951 -34.280135 5.123261 57.214828 -65.665179 -13.064433 1.364838 -0.290823 2.697029 -6.931837 -0.003330 -0.042530 86.504257 28.803738 41.186782 -85.715821 73.856816 -30.666607 -0.674492 -1.790676 2.294748 6.848806 0.007630 -0.008647 
4.458851 15.527076 -2.475104 -4.513051 -19.916304 4.102259 -9.100666 22.520189 -32.762194 -9.020066 16.303607 28.014673 -0.063088 5.003264 -11.181560 -0.369088 0.701238 1.521855 -4.077702 -16.444299 3.828304 25.780129 -15.251179 31.207770 1.756045 -2.969577 -14.585316 1.055428 0.077505 -0.510473 0.314906 1.839597 -3.066522 -2.065484 0.937001 -11.832777 0.947572 -0.090684 -0.883180 0.478272 0.660732 1.414933 -47.523848 -33.934357 4.793991 57.378152 -66.066180 -13.192751 1.383375 -0.288539 2.708619 -6.933043 -0.003288 -0.042601 86.367804 29.134551 41.165926 -85.693814 73.957623 -30.606631 -0.677085 -1.795835 2.279691 6.849474 0.007668 -0.008771 
4.429958 15.522803 -2.481144 -4.484348 -19.378630 4.121274 -9.187086 22.263343 -32.973773 -9.014314 16.278632 28.124209 -0.061773 4.873097 -11.064408 -0.365647 0.706108 1.527406 -3.995890 -16.597373 4.090331 25.944709 -15.250761 31.095922 1.912054 -2.999761 -15.121499 1.051869 0.080588 -0.519583 0.306764 1.855327 -3.072112 -2.124703 0.976260 -11.812783 0.956826 -0.088049 -0.888721 0.493262 0.669830 1.403002 -48.000862 -33.551747 4.418612 57.528327 -66.507649 -13.323779 1.403730 -0.285114 2.720044 -6.934496 -0.003267 -0.042683 86.204466 29.502848 41.131642 -85.652717 74.082411 -30.534217 -0.678918 -1.800775 2.255691 6.850323 0.007664 -0.008891 
